<svg width="245" height="36" viewBox="0 0 245 36" fill="none" xmlns="http://www.w3.org/2000/svg">
<g clip-path="url(#clip0_96_1466)">
<path d="M4.301 24.6689L0.085 12.4289H1.3855L5.117 23.2494L8.874 12.4289H10.1745L5.9585 24.6689H4.301ZM14.2706 24.9239C13.3582 24.9239 12.5791 24.7171 11.9331 24.3034C11.2871 23.8898 10.7912 23.3174 10.4456 22.5864C10.0999 21.8554 9.92707 21.0168 9.92707 20.0704C9.92707 19.1071 10.1027 18.2628 10.4541 17.5374C10.8054 16.8121 11.3041 16.2483 11.9501 15.8459C12.6017 15.4379 13.3752 15.2339 14.2706 15.2339C15.1886 15.2339 15.9706 15.4408 16.6166 15.8544C17.2682 16.2624 17.7641 16.8319 18.1041 17.5629C18.4497 18.2883 18.6226 19.1241 18.6226 20.0704C18.6226 21.0338 18.4497 21.8809 18.1041 22.6119C17.7584 23.3373 17.2597 23.9039 16.6081 24.3119C15.9564 24.7199 15.1772 24.9239 14.2706 24.9239ZM14.2706 23.7254C15.2906 23.7254 16.0499 23.3883 16.5486 22.7139C17.0472 22.0339 17.2966 21.1528 17.2966 20.0704C17.2966 18.9598 17.0444 18.0758 16.5401 17.4184C16.0414 16.7611 15.2849 16.4324 14.2706 16.4324C13.5849 16.4324 13.0182 16.5883 12.5706 16.8999C12.1286 17.2059 11.7971 17.6338 11.5761 18.1834C11.3607 18.7274 11.2531 19.3564 11.2531 20.0704C11.2531 21.1754 11.5081 22.0623 12.0181 22.7309C12.5281 23.3939 13.2789 23.7254 14.2706 23.7254ZM20.6676 13.7464V12.3439H21.9171V13.7464H20.6676ZM20.6676 24.6689V15.4889H21.9171V24.6689H20.6676ZM24.4654 24.6689V15.4889H25.5874V17.6989L25.3664 17.4099C25.4684 17.1379 25.6016 16.8886 25.7659 16.6619C25.9302 16.4296 26.1087 16.2398 26.3014 16.0924C26.5394 15.8828 26.8171 15.7241 27.1344 15.6164C27.4517 15.5031 27.7719 15.4379 28.0949 15.4209C28.4179 15.3983 28.7126 15.4209 28.9789 15.4889V16.6619C28.6446 16.5769 28.2791 16.5571 27.8824 16.6024C27.4857 16.6478 27.1202 16.8064 26.7859 17.0784C26.4799 17.3164 26.2504 17.6026 26.0974 17.9369C25.9444 18.2656 25.8424 18.6169 25.7914 18.9909C25.7404 19.3593 25.7149 19.7248 25.7149 20.0874V24.6689H24.4654ZM34.1647 24.6689V12.1739H35.4142V24.6689H34.1647ZM41.847 24.9239C40.9516 24.9239 40.1753 24.7256 39.518 24.3289C38.8663 23.9323 38.3591 23.3741 37.9965 22.6544C37.6338 21.9348 37.4525 21.0904 37.4525 20.1214C37.4525 19.1184 37.631 18.2514 37.988 17.5204C38.345 16.7894 38.8465 16.2256 39.4925 15.8289C40.1441 15.4323 40.912 15.2339 41.796 15.2339C42.7026 15.2339 43.4761 15.4436 44.1165 15.8629C44.7568 16.2766 45.2413 16.8716 45.57 17.6479C45.8986 18.4243 46.0488 19.3508 46.0205 20.4274H44.7455V19.9854C44.7228 18.7954 44.465 17.8973 43.972 17.2909C43.4846 16.6846 42.7706 16.3814 41.83 16.3814C40.844 16.3814 40.0875 16.7016 39.5605 17.3419C39.0391 17.9823 38.7785 18.8946 38.7785 20.0789C38.7785 21.2349 39.0391 22.1331 39.5605 22.7734C40.0875 23.4081 40.8326 23.7254 41.796 23.7254C42.4533 23.7254 43.0256 23.5753 43.513 23.2749C44.006 22.9689 44.3941 22.5298 44.6775 21.9574L45.842 22.4079C45.4793 23.2069 44.9438 23.8274 44.2355 24.2694C43.5328 24.7058 42.7366 24.9239 41.847 24.9239ZM38.3365 20.4274V19.3819H45.349V20.4274H38.3365ZM55.4326 24.9239C54.5883 24.9239 53.8743 24.7114 53.2906 24.2864C52.707 23.8558 52.265 23.2749 51.9646 22.5439C51.6643 21.8073 51.5141 20.9828 51.5141 20.0704C51.5141 19.1411 51.6643 18.3138 51.9646 17.5884C52.2706 16.8574 52.7183 16.2823 53.3076 15.8629C53.897 15.4436 54.6223 15.2339 55.4836 15.2339C56.3223 15.2339 57.042 15.4464 57.6426 15.8714C58.2433 16.2964 58.7023 16.8744 59.0196 17.6054C59.3426 18.3364 59.5041 19.1581 59.5041 20.0704C59.5041 20.9884 59.3426 21.8129 59.0196 22.5439C58.6966 23.2749 58.232 23.8558 57.6256 24.2864C57.0193 24.7114 56.2883 24.9239 55.4326 24.9239ZM51.3016 28.7489V15.4889H52.4236V22.3994H52.5596V28.7489H51.3016ZM55.3051 23.7594C55.9455 23.7594 56.4781 23.5979 56.9031 23.2749C57.3281 22.9519 57.6455 22.5128 57.8551 21.9574C58.0705 21.3964 58.1781 20.7674 58.1781 20.0704C58.1781 19.3791 58.0733 18.7558 57.8636 18.2004C57.654 17.6451 57.3338 17.2059 56.9031 16.8829C56.4781 16.5599 55.937 16.3984 55.2796 16.3984C54.6393 16.3984 54.1066 16.5543 53.6816 16.8659C53.2623 17.1776 52.9478 17.6111 52.7381 18.1664C52.5285 18.7161 52.4236 19.3508 52.4236 20.0704C52.4236 20.7788 52.5285 21.4134 52.7381 21.9744C52.9478 22.5298 53.2651 22.9661 53.6901 23.2834C54.1151 23.6008 54.6535 23.7594 55.3051 23.7594ZM61.3707 24.6689V15.4889H62.4927V17.6989L62.2717 17.4099C62.3737 17.1379 62.5068 16.8886 62.6712 16.6619C62.8355 16.4296 63.014 16.2398 63.2067 16.0924C63.4447 15.8828 63.7223 15.7241 64.0397 15.6164C64.357 15.5031 64.6772 15.4379 65.0002 15.4209C65.3232 15.3983 65.6178 15.4209 65.8842 15.4889V16.6619C65.5498 16.5769 65.1843 16.5571 64.7877 16.6024C64.391 16.6478 64.0255 16.8064 63.6912 17.0784C63.3852 17.3164 63.1557 17.6026 63.0027 17.9369C62.8497 18.2656 62.7477 18.6169 62.6967 18.9909C62.6457 19.3593 62.6202 19.7248 62.6202 20.0874V24.6689H61.3707ZM71.1641 24.9239C70.2518 24.9239 69.4726 24.7171 68.8266 24.3034C68.1806 23.8898 67.6848 23.3174 67.3391 22.5864C66.9935 21.8554 66.8206 21.0168 66.8206 20.0704C66.8206 19.1071 66.9963 18.2628 67.3476 17.5374C67.699 16.8121 68.1976 16.2483 68.8436 15.8459C69.4953 15.4379 70.2688 15.2339 71.1641 15.2339C72.0821 15.2339 72.8641 15.4408 73.5101 15.8544C74.1618 16.2624 74.6576 16.8319 74.9976 17.5629C75.3433 18.2883 75.5161 19.1241 75.5161 20.0704C75.5161 21.0338 75.3433 21.8809 74.9976 22.6119C74.652 23.3373 74.1533 23.9039 73.5016 24.3119C72.85 24.7199 72.0708 24.9239 71.1641 24.9239ZM71.1641 23.7254C72.1841 23.7254 72.9435 23.3883 73.4421 22.7139C73.9408 22.0339 74.1901 21.1528 74.1901 20.0704C74.1901 18.9598 73.938 18.0758 73.4336 17.4184C72.935 16.7611 72.1785 16.4324 71.1641 16.4324C70.4785 16.4324 69.9118 16.5883 69.4641 16.8999C69.0221 17.2059 68.6906 17.6338 68.4696 18.1834C68.2543 18.7274 68.1466 19.3564 68.1466 20.0704C68.1466 21.1754 68.4016 22.0623 68.9116 22.7309C69.4216 23.3939 70.1725 23.7254 71.1641 23.7254ZM76.0312 28.7489V27.5419H76.5497C76.9633 27.5419 77.292 27.4343 77.5357 27.2189C77.785 27.0093 77.9097 26.6551 77.9097 26.1564V15.4889H79.1507V26.4709C79.1507 27.2359 78.9665 27.8054 78.5982 28.1794C78.2355 28.5591 77.6773 28.7489 76.9237 28.7489H76.0312ZM77.9097 13.7464V12.3439H79.1507V13.7464H77.9097ZM85.5423 24.9239C84.6469 24.9239 83.8706 24.7256 83.2133 24.3289C82.5616 23.9323 82.0544 23.3741 81.6918 22.6544C81.3291 21.9348 81.1478 21.0904 81.1478 20.1214C81.1478 19.1184 81.3263 18.2514 81.6833 17.5204C82.0403 16.7894 82.5418 16.2256 83.1878 15.8289C83.8394 15.4323 84.6073 15.2339 85.4913 15.2339C86.3979 15.2339 87.1714 15.4436 87.8118 15.8629C88.4521 16.2766 88.9366 16.8716 89.2653 17.6479C89.5939 18.4243 89.7441 19.3508 89.7158 20.4274H88.4408V19.9854C88.4181 18.7954 88.1603 17.8973 87.6673 17.2909C87.1799 16.6846 86.4659 16.3814 85.5253 16.3814C84.5393 16.3814 83.7828 16.7016 83.2558 17.3419C82.7344 17.9823 82.4738 18.8946 82.4738 20.0789C82.4738 21.2349 82.7344 22.1331 83.2558 22.7734C83.7828 23.4081 84.5279 23.7254 85.4913 23.7254C86.1486 23.7254 86.7209 23.5753 87.2083 23.2749C87.7013 22.9689 88.0894 22.5298 88.3728 21.9574L89.5373 22.4079C89.1746 23.2069 88.6391 23.8274 87.9308 24.2694C87.2281 24.7058 86.4319 24.9239 85.5423 24.9239ZM82.0318 20.4274V19.3819H89.0443V20.4274H82.0318ZM96.6001 24.6689C96.0844 24.7766 95.5744 24.8191 95.0701 24.7964C94.5714 24.7738 94.1238 24.6661 93.7271 24.4734C93.3361 24.2808 93.0386 23.9804 92.8346 23.5724C92.6703 23.2324 92.5796 22.8896 92.5626 22.5439C92.5513 22.1926 92.5456 21.7931 92.5456 21.3454V12.9389H93.7866V21.2944C93.7866 21.6798 93.7894 22.0028 93.7951 22.2634C93.8064 22.5184 93.8659 22.7451 93.9736 22.9434C94.1776 23.3231 94.5006 23.5498 94.9426 23.6234C95.3903 23.6971 95.9428 23.6801 96.6001 23.5724V24.6689ZM90.5821 16.5599V15.4889H96.6001V16.5599H90.5821Z" fill="#333333"/>
<path d="M104.112 21.6768L111.753 14.0376" stroke="black" stroke-linecap="round" stroke-linejoin="round"/>
<path d="M106.022 14.0376H111.753V19.767" stroke="black" stroke-linecap="round" stroke-linejoin="round"/>
</g>
<defs>
<clipPath id="clip0_96_1466">
<rect width="244.52" height="35.3312" fill="white" transform="translate(0 0.668945)"/>
</clipPath>
</defs>
</svg>
