<svg width="53" height="62" viewBox="0 0 53 62" fill="none" xmlns="http://www.w3.org/2000/svg">
<g clip-path="url(#clip0_129_1316)">
<path d="M19.7 32.5305C19.9465 32.5172 20.1904 32.504 20.4263 32.4907C25.0302 32.2499 29.5149 29.714 34.1188 30.1137C34.9245 30.1825 35.7409 30.3678 36.4168 30.8072C37.424 31.4637 37.8242 32.5516 37.5432 33.7005C36.6262 37.4461 31.0866 38.6478 27.9272 39.4764C21.8231 41.0805 14.6694 41.8296 8.73226 39.1667C3.70425 36.9114 1.41687 31.9084 2.84815 26.601C3.72281 23.353 5.64177 20.4995 7.55809 17.736C9.05562 15.5759 11.2025 12.8283 14.2241 13.4398C17.0363 14.0089 16.7447 16.9048 15.6633 18.8636C14.3752 21.1983 12.6206 23.2339 11.5789 25.7116C10.8394 27.4692 10.6671 29.3804 12.1143 30.8363C14.0041 32.7343 17.1185 32.6628 19.6947 32.5278L19.7 32.5305Z" stroke="black" stroke-miterlimit="10"/>
<path d="M25.1648 9.29825C21.9414 9.29825 18.7181 9.27264 15.4947 9.27264C13.3887 9.27549 11.1402 8.65242 10.409 6.32801C10.0201 5.09326 10.2693 3.66504 11.0471 2.64936C11.625 1.89542 12.452 1.38616 13.3092 1.01345C16.0123 -0.158707 18.9043 -0.00222929 21.7689 0.0176861C24.6335 0.0376014 27.6433 0.0290665 30.5819 0.120108C32.4606 0.177009 34.3393 0.256673 36.218 0.36763C37.8804 0.464362 39.3894 0.305038 40.671 1.54832C41.4461 2.30226 41.9171 3.41183 41.8322 4.51002C41.7583 5.47734 41.2735 6.38207 40.6026 7.05634C39.8002 7.86149 38.754 8.39352 37.6804 8.68371C35.0815 9.3836 32.3675 9.24703 29.7028 9.27548C28.191 9.29255 26.6793 9.29825 25.1676 9.29825H25.1648Z" stroke="black" stroke-miterlimit="10"/>
<path d="M52.9827 21.2943C52.8097 18.3158 50.3505 16.5463 47.1227 16.1887C41.152 15.5241 34.9573 15.8417 28.9752 16.2794C26.8309 16.4369 24.071 16.8159 22.5252 18.3692C21.1609 19.7383 20.846 21.9802 22.5592 23.2239C23.3903 23.8271 24.4596 24.0726 25.5063 24.15C30.3821 24.5076 35.3458 23.8564 40.2358 23.9418C42.2639 23.9765 43.4438 24.4222 43.1715 26.6081C42.5731 31.3907 41.7902 36.2295 39.5948 40.6251C38.0603 43.6971 35.8706 46.5528 33.2242 48.9094C30.5466 51.2901 26.6522 52.7446 24.6865 55.7498C23.5945 57.4206 23.7449 59.6277 25.6594 60.6686C29.9169 62.9879 35.6295 59.0272 38.5028 56.2996C42.3206 52.6753 45.5797 48.2289 47.7382 43.5636C50.7732 37.0008 52.5998 29.1729 52.9913 21.9749C53.0026 21.7427 53.0026 21.5158 52.9913 21.2969L52.9827 21.2943Z" stroke="black" stroke-miterlimit="10"/>
<path d="M17.1872 33.7443C17.4325 33.7311 17.6752 33.7179 17.9099 33.7046C22.4911 33.4637 26.9537 30.9278 31.5349 31.3275C32.3367 31.3964 33.1491 31.5817 33.8216 32.0211C34.8238 32.6775 35.2221 33.7655 34.9425 34.9143C34.03 38.6599 28.5177 39.8617 25.3739 40.6902C19.2998 42.2944 12.1814 43.0435 6.27347 40.3805C1.27024 38.1252 -1.00588 33.1223 0.418339 27.8149C1.2887 24.5669 3.19821 21.7134 5.10508 18.9498C6.59524 16.7898 8.73157 14.0421 11.7383 14.6536C14.5366 15.2227 14.2465 18.1186 13.1704 20.0775C11.8886 22.4122 10.1426 24.4478 9.10609 26.9255C8.37024 28.6831 8.1988 30.5943 9.63885 32.0502C11.5194 33.9481 14.6184 33.8767 17.182 33.7417L17.1872 33.7443Z" fill="black"/>
<path d="M23.6112 9.71123C20.4993 9.71123 17.3874 9.68736 14.2755 9.68736C12.2423 9.69001 10.0716 9.10899 9.36564 6.94146C8.9902 5.79004 9.2308 4.45822 9.98168 3.51108C10.5396 2.80803 11.338 2.33313 12.1656 1.98558C14.7752 0.892531 17.5672 1.03845 20.3327 1.05702C23.0983 1.07559 26.004 1.06763 28.841 1.15253C30.6547 1.20559 32.4685 1.27987 34.2822 1.38334C35.8871 1.47355 37.3439 1.32498 38.5813 2.48436C39.3295 3.18741 39.7843 4.22209 39.7023 5.24617C39.6309 6.1482 39.1629 6.99187 38.5152 7.62064C37.7405 8.37145 36.7305 8.86757 35.6941 9.13818C33.185 9.79083 30.5648 9.66348 27.9923 9.69001C26.5328 9.70593 25.0733 9.71123 23.6139 9.71123H23.6112Z" fill="black"/>
<path d="M50.2775 22.078C50.1162 19.1305 47.8227 17.3794 44.8124 17.0255C39.2441 16.3679 33.4669 16.6822 27.888 17.1153C25.8882 17.2711 23.3144 17.6462 21.8727 19.1833C20.6003 20.5383 20.3067 22.7568 21.9044 23.9876C22.6795 24.5845 23.6768 24.8275 24.6529 24.9041C29.2001 25.258 33.8293 24.6136 38.3897 24.6981C40.2811 24.7324 41.3815 25.1735 41.1276 27.3366C40.5694 32.0695 39.8393 36.858 37.7919 41.2079C36.3608 44.2479 34.3187 47.0739 31.8506 49.4061C29.3535 51.762 25.7216 53.2014 23.8884 56.1754C22.87 57.8287 23.0102 60.0129 24.7957 61.043C28.7663 63.3382 34.0938 59.4187 36.7735 56.7194C40.334 53.1327 43.3734 48.7326 45.3864 44.1158C48.2169 37.6212 49.9204 29.8747 50.2855 22.7515C50.296 22.5218 50.2881 22.2946 50.2775 22.078Z" fill="black"/>
</g>
<defs>
<clipPath id="clip0_129_1316">
<rect width="53" height="61.7354" fill="white"/>
</clipPath>
</defs>
</svg>
